<svg width="276" height="54" viewBox="0 0 276 54" fill="none" xmlns="http://www.w3.org/2000/svg">
<path d="M78.8415 40.4566V23.2211H86.5128V19.4099H78.7554C78.4967 16.3608 80.2637 15.4715 83.6684 15.4715H86.5128V12.0838H84.401C78.3244 12.0838 74.7473 14.794 74.2301 19.4099H70.9547V23.2211H74.1871V40.4566H78.8415ZM93.753 40.4566V12.0838H89.0987V40.4566H93.753Z" fill="black"/>
<path d="M106.975 40.88C112.492 40.88 115.336 37.4922 116.026 33.935H116.284V40.4566H120.551V19.4099H115.939V29.8273C115.939 34.4009 113.741 36.7723 109.001 36.7723C104.476 36.7723 102.622 34.782 102.622 30.8437V19.4099H98.0109V32.0718C98.0109 36.9418 100.942 40.88 106.975 40.88Z" fill="black"/>
<path d="M129.434 16.9537V12.0838H124.779V16.9537H129.434ZM129.434 40.4566V19.4099H124.779V40.4566H129.434Z" fill="black"/>
<path d="M143.182 40.8801C148.009 40.8801 151.155 38.5933 152.06 34.4009H152.362V40.4566H156.629V12.0838H151.973V25.1268H151.716C150.854 21.5695 147.965 18.9864 142.88 18.9864C136.373 18.9864 132.667 23.3905 132.667 29.9544C132.667 36.4336 136.416 40.8801 143.182 40.8801ZM137.364 29.9544C137.364 24.8727 140.036 23.1365 144.518 23.1365C149.301 23.1365 151.973 25.3385 151.973 29.8273V30.1661C151.973 34.5703 149.173 36.6876 144.604 36.6876C139.993 36.6876 137.364 34.9938 137.364 29.9544Z" fill="black"/>
<path d="M171.749 40.88C178.17 40.88 182.868 37.3229 182.868 32.0718V31.606H178.257V31.9024C178.257 35.1631 175.844 36.7723 171.663 36.7723C166.836 36.7723 164.682 34.4856 164.682 29.9544C164.682 25.3385 166.836 23.0941 171.663 23.0941C175.844 23.0941 178.257 24.7033 178.257 27.9641V28.2181H182.868V27.7946C182.868 22.5436 178.17 18.9864 171.749 18.9864C164.682 18.9864 160.07 23.3905 160.07 29.9544C160.07 36.4335 164.682 40.88 171.749 40.88Z" fill="black"/>
<path d="M197.257 40.88C204.411 40.88 209.195 36.4335 209.195 29.9544C209.195 23.3905 204.411 18.9864 197.257 18.9864C190.146 18.9864 185.362 23.3905 185.362 29.9544C185.362 36.4335 190.146 40.88 197.257 40.88ZM197.257 36.8147C192.085 36.8147 189.931 34.4009 189.931 29.9544C189.931 25.4655 192.085 23.0094 197.257 23.0094C202.472 23.0094 204.627 25.4655 204.627 29.9544C204.627 34.4009 202.472 36.8147 197.257 36.8147Z" fill="black"/>
<path d="M217.227 16.9537V12.0838H212.573V16.9537H217.227ZM217.227 40.4566V19.4099H212.573V40.4566H217.227Z" fill="black"/>
<path d="M226.192 40.4565V30.0391C226.192 25.4655 228.303 23.0941 233.001 23.0941C237.441 23.0941 239.25 25.0844 239.25 29.0227V40.4565H243.905V27.7946C243.905 22.9247 240.974 18.9864 235.026 18.9864C229.597 18.9864 226.752 22.3741 226.105 25.9314H225.803V19.4099H221.538V40.4565H226.192Z" fill="black"/>
<path d="M258.18 40.88C264.214 40.88 268.178 38.551 268.178 34.6125C268.178 31.1401 265.851 29.4462 260.766 28.811L255.809 28.1334C252.577 27.7099 251.716 27.1171 251.716 25.4655C251.716 23.4752 253.094 22.6283 257.016 22.6283C261.757 22.6283 263.05 23.9411 263.05 26.4396V26.6936H267.661V26.5665C267.661 21.5695 263.696 18.9864 257.145 18.9864C250.552 18.9864 247.147 21.6119 247.147 25.2961C247.147 28.811 249.604 30.505 253.655 31.013L259.516 31.7753C262.576 32.1988 263.611 32.7493 263.611 34.4856C263.611 36.3488 262.36 37.1958 258.18 37.1958C253.698 37.1958 252.017 36.3065 252.017 33.5539V33.2152H247.362V33.3422C247.362 38.2122 251.285 40.88 258.18 40.88Z" fill="black"/>
<path d="M0.0203552 26.7758C0.0203552 16.6566 0.0203552 11.597 2.34602 7.88405C3.63174 5.83141 5.38978 4.10393 7.47875 2.84058C11.2574 0.555359 16.4529 0.555359 26.8439 0.555359C37.235 0.555359 42.4305 0.555359 46.2091 2.84058C48.2982 4.10393 50.0561 5.83141 51.3419 7.88403C53.6676 11.597 53.6676 16.6566 53.6676 26.7758C53.6676 36.8952 53.6676 41.9548 51.3419 45.6677C50.0561 47.7204 48.2982 49.4478 46.2091 50.7112C42.4305 52.9964 37.235 52.9964 26.8439 52.9964C16.4529 52.9964 11.2574 52.9964 7.47875 50.7112C5.38978 49.4478 3.63174 47.7204 2.34602 45.6677C0.0203552 41.9548 0.0203552 36.8952 0.0203552 26.7758Z" fill="#131228"/>
<path fill-rule="evenodd" clip-rule="evenodd" d="M20.0126 20.2032V33.1795C20.0126 36.7481 17.0413 39.6678 13.4096 39.6678V26.6915C13.4096 23.123 16.3809 20.2032 20.0126 20.2032Z" fill="white"/>
<path fill-rule="evenodd" clip-rule="evenodd" d="M26.6158 13.7151H39.8218C39.8218 17.2836 36.8505 20.2033 33.2187 20.2033H20.0127C20.0127 16.6347 22.984 13.7151 26.6158 13.7151Z" fill="white"/>
<path d="M29.917 33.2069C31.7557 33.2069 33.2463 31.7423 33.2463 29.9356C33.2463 28.129 31.7557 26.6644 29.917 26.6644C28.0785 26.6644 26.588 28.129 26.588 29.9356C26.588 31.7423 28.0785 33.2069 29.917 33.2069Z" fill="url(#paint0_linear_29_820)"/>
<defs>
<linearGradient id="paint0_linear_29_820" x1="29.9045" y1="35.3526" x2="13.285" y2="23.4359" gradientUnits="userSpaceOnUse">
<stop stop-color="#A8FF78"/>
<stop offset="1" stop-color="#1FFFBB"/>
</linearGradient>
</defs>
</svg>
