<svg width="284" height="68" viewBox="0 0 284 68" fill="none" xmlns="http://www.w3.org/2000/svg">
<path d="M96.385 22.9598H91.8828V46.1405H96.385V22.9598Z" fill="#2A3362"/>
<path d="M113.81 37.9158C113.81 41.1151 111.753 42.5525 109.014 42.5525C106.275 42.5525 104.445 41.1151 104.445 38.078V29.817H99.9426V39.1239C99.9426 43.7578 102.846 46.4677 107.675 46.4677C110.71 46.4677 112.407 45.3491 113.544 44.085H113.807L114.198 46.1433H118.34V29.817H113.81V37.9158Z" fill="#2A3362"/>
<path d="M157.974 42.9105C154.679 42.9105 152.82 41.4087 152.527 39.2218H166.816C166.882 38.7671 166.915 38.3081 166.914 37.8487C166.883 31.9759 162.442 29.4897 157.691 29.4897C152.178 29.4897 148.033 32.7897 148.033 38.1116C148.033 43.1705 152.016 46.4677 157.985 46.4677C162.979 46.4677 166.305 44.25 166.992 40.8522H162.543C161.987 42.1917 160.388 42.9105 157.974 42.9105ZM157.694 33.0498C160.567 33.0498 162.23 34.3222 162.493 36.126H152.625C153.047 34.3977 154.712 33.0498 157.68 33.0498H157.694Z" fill="#2A3362"/>
<path d="M174.563 32.1605H174.283L173.859 29.8086H169.767V46.1433H174.269V39.1239C174.269 35.9554 176.094 34.1936 179.49 34.1936C180.107 34.185 180.723 34.2394 181.329 34.3558V29.817H180.7C177.698 29.817 175.834 30.4378 174.563 32.1605Z" fill="#2A3362"/>
<path d="M203.434 41.048H203.175L199.323 30.8293H194.69L190.906 41.0172H190.613L187.024 29.817H182.553L188.067 46.1433H192.963L196.878 35.7261H197.138L200.989 46.1433H205.916L211.43 29.817H206.958L203.434 41.048Z" fill="#2A3362"/>
<path d="M229.349 41.3891V35.9247C229.349 31.4837 225.596 29.4926 220.929 29.4926C215.971 29.4926 212.872 31.8445 212.447 35.3653H216.949C217.276 33.83 218.582 32.9827 220.929 32.9827C223.277 32.9827 224.842 33.8636 224.842 35.659V36.0757L217.5 36.635C214.107 36.8979 211.631 38.3996 211.631 41.5989C211.631 44.896 214.471 46.4621 218.646 46.4621C222.016 46.4621 224.07 45.5225 225.328 44.1046H225.551C226.258 45.6986 227.692 46.1377 229.252 46.1377H231.144V42.8126H230.719C229.771 42.8126 229.349 42.3567 229.349 41.3891ZM224.844 39.6581C224.844 42.2393 221.77 43.0866 219.135 43.0866C217.341 43.0866 216.167 42.6308 216.167 41.3891C216.167 40.2705 217.179 39.7252 218.682 39.5937L224.847 39.1379L224.844 39.6581Z" fill="#2A3362"/>
<path d="M245.994 29.817L240.74 41.638H240.447L235.129 29.817H230.266L237.867 46.1433H243.253L250.821 29.817H245.994Z" fill="#2A3362"/>
<path d="M265.213 40.8522C264.654 42.1917 263.059 42.9105 260.644 42.9105C257.349 42.9105 255.491 41.4087 255.197 39.2218H269.486C269.552 38.7671 269.585 38.3081 269.584 37.8487C269.553 31.9759 265.113 29.4897 260.362 29.4897C254.848 29.4897 250.706 32.7897 250.706 38.1116C250.706 43.1705 254.686 46.4677 260.655 46.4677C265.649 46.4677 268.975 44.25 269.662 40.8522H265.213ZM260.35 33.0498C263.223 33.0498 264.886 34.3222 265.149 36.126H255.284C255.711 34.3977 257.371 33.0498 260.339 33.0498H260.35Z" fill="#2A3362"/>
<path d="M84.5664 28.6144C84.5664 27.177 85.578 26.5589 86.8832 26.5589C87.4902 26.5646 88.0937 26.6521 88.6773 26.819L89.4291 23.5526C88.3393 23.167 87.1923 22.9685 86.0364 22.9654C82.7079 22.9654 80.0334 24.73 80.0334 28.3851V29.8169H76.1489V33.3937H80.0334V46.1433H84.5664V33.3909H89.6415V29.8169H84.5664V28.6144Z" fill="#2A3362"/>
<path d="M128.275 25.2138H124.083L123.848 29.8169H120.305V33.3938H123.764V41.4423C123.764 44.1829 125.162 46.4761 129.354 46.4761C130.44 46.4761 131.524 46.356 132.584 46.1181V42.6811C131.973 42.8183 131.349 42.8951 130.723 42.9105C128.473 42.9105 128.278 41.638 128.278 40.6564V33.3854H132.749V29.8169H128.275V25.2138Z" fill="#2A3362"/>
<path d="M142.413 25.2138H138.235L138 29.8169H134.448V33.3938H137.908V41.4423C137.908 44.1829 139.305 46.4761 143.497 46.4761C144.582 46.4727 145.662 46.3498 146.72 46.1097V42.6811C146.108 42.8183 145.485 42.8951 144.858 42.9105C142.609 42.9105 142.413 41.638 142.413 40.6564V33.3854H146.898V29.8169H142.413V25.2138Z" fill="#2A3362"/>
<path d="M13.4786 22.3418C13.4786 19.7214 14.2444 17.4841 15.8513 15.8761L18.646 18.6727C15.5355 21.7741 18.2519 31.4166 27.1082 40.2873C35.9645 49.158 45.606 51.8735 48.7137 48.7665L51.5084 51.563C46.2656 56.8094 34.324 53.0872 24.3275 43.0811C17.394 36.14 13.4786 28.2649 13.4786 22.3418Z" fill="#009A46"/>
<path d="M31.1017 53.9737C28.4831 53.9737 26.2474 53.2074 24.6377 51.5994L27.4324 48.8028C30.5372 51.9098 40.1732 49.1915 49.0379 40.3236C57.9025 31.4557 60.6133 21.8132 57.5085 18.7062L60.3031 15.9096C65.5487 21.156 61.8262 33.1057 51.8269 43.109C44.8906 50.0585 37.0208 53.9737 31.1017 53.9737Z" fill="#FF5805"/>
<path d="M52.752 39.1071C51.0557 34.2187 47.5903 28.9948 42.9931 24.3972C32.9966 14.3911 21.055 10.6661 15.8122 15.9152C15.4405 16.29 15.7619 17.2156 16.5332 17.9875C17.3046 18.7593 18.2296 19.0781 18.6013 18.7062C21.7089 15.5992 31.3449 18.3175 40.2068 27.1882C44.3988 31.383 47.5232 36.0673 49.0295 40.4019C50.3486 44.2025 50.2201 47.2675 48.683 48.8056C48.3085 49.1776 48.6327 50.106 49.4012 50.8751C50.1698 51.6441 51.0976 51.9685 51.4721 51.5938C54.1577 48.9063 54.6133 44.4653 52.752 39.1071Z" fill="#F5AFCB"/>
<path d="M60.2975 15.9152C57.6063 13.2221 53.174 12.7663 47.8138 14.6316C42.9315 16.3263 37.7083 19.7969 33.1139 24.3944C23.1174 34.3977 19.3949 46.3474 24.6377 51.5966C25.0122 51.9685 25.9372 51.6469 26.7085 50.8779C27.4799 50.1088 27.8012 49.1803 27.4268 48.8056C24.3135 45.6986 27.0383 36.0561 35.903 27.1854C40.0949 22.9905 44.776 19.864 49.1077 18.3566C52.9057 17.0394 55.9686 17.1653 57.5085 18.7034C57.8802 19.0753 58.808 18.7537 59.5765 17.9819C60.3451 17.21 60.6692 16.2872 60.2975 15.9152Z" fill="#FF9B00"/>
</svg>
