<svg width="194" height="56" viewBox="0 0 194 56" fill="none" xmlns="http://www.w3.org/2000/svg">
<path d="M19.5803 8.94787C16.1677 9.61769 13.036 11.2194 10.5133 13.5893C8.86463 15.1419 7.84281 16.4815 6.87005 18.3447C5.36981 21.2212 4.80922 23.5412 4.80922 26.826C4.80922 30.1108 5.36981 32.4315 6.87005 35.3073C7.84281 37.1705 8.86463 38.5102 10.5133 40.0628C13.9584 43.3148 18.1788 44.9656 23.0255 44.9656C26.2566 44.9656 28.6799 44.4099 31.3504 43.086C32.6856 42.4162 34.4827 41.272 34.4827 41.076C34.4827 41.0105 33.4768 39.9645 32.2575 38.7553L30.0317 36.5493L29.0424 37.0886C27.1962 38.1019 25.8609 38.4616 23.6683 38.5429C22.0036 38.6085 21.4596 38.5757 20.2887 38.2814C14.8981 36.9412 11.2383 32.3168 11.2383 26.826C11.2383 20.2565 16.4805 15.0599 23.1077 15.0599C31.8281 15.0599 37.5157 23.9174 33.9055 31.8593L33.4437 32.8889L35.6529 35.095C36.8563 36.3042 37.9278 37.2846 38.0266 37.2846C38.3891 37.2846 39.8727 34.5392 40.5161 32.6596C41.1424 30.8455 41.4061 29.0806 41.4061 26.8254C41.4061 23.5406 40.8455 21.2199 39.3453 18.3441C38.3725 16.4809 37.3507 15.1412 35.702 13.5887C33.1468 11.1703 30.0151 9.58493 26.5197 8.93149C24.9047 8.62085 21.1462 8.63724 19.5803 8.94787ZM85.0901 25.7637V37.7748H89.5412V13.7525H85.0901V25.7637ZM153.899 13.9976C147.75 15.3214 143.365 21.2861 144.107 27.2671C144.486 30.2412 145.558 32.3823 147.717 34.5064C149.778 36.5165 151.575 37.4806 154.328 38.0363C157.345 38.6412 161.103 37.8567 163.61 36.1082L164.07 35.7812L164.977 36.582C166.641 38.0036 166.444 37.9872 167.466 36.8763C169.098 35.095 169.081 35.2588 167.829 34.1309L166.74 33.1668L167.45 31.9249C170.251 27.0547 169.445 21.3352 165.372 17.3479C163.576 15.5666 161.581 14.5042 159.141 13.9976C157.774 13.7033 155.234 13.7033 153.899 13.9976ZM158.762 18.1481C162.06 19.1614 164.548 22.5602 164.548 26.0415C164.548 27.0384 164.152 28.6073 163.675 29.5386L163.312 30.2248L161.679 28.8197L160.048 27.4145L159.323 28.2154C158.911 28.6729 158.366 29.2941 158.102 29.6369L157.625 30.2255L159.208 31.5821L160.772 32.9381L160.031 33.3143C159.025 33.8209 157.574 34.1806 156.552 34.1806C152.316 34.1806 148.557 30.2582 148.557 25.8625C148.557 24.8985 148.936 23.395 149.464 22.3327C149.958 21.3358 151.294 19.7996 152.3 19.1134C154.114 17.8866 156.668 17.5111 158.762 18.1481ZM47.1752 16.1217V18.1645H54.7585V37.7748H59.3746V18.1645H66.9579V14.0789H47.1752V16.1217ZM172.461 25.9269V37.7748H189.112V33.853H176.912V14.0795H172.461V25.9269ZM133.226 17.5111V19.9622H130.589V23.5576H133.21L133.26 29.1467L133.309 34.7522L133.755 35.5694C134.711 37.3671 136.145 38.1844 138.337 38.1844C139.606 38.1844 139.854 38.1352 140.859 37.645C141.486 37.3344 142.03 36.9916 142.079 36.8605C142.129 36.7295 141.997 36.2392 141.799 35.7654C141.585 35.3079 141.321 34.6866 141.206 34.3924L140.992 33.8858L140.365 34.1964C139.64 34.5726 138.98 34.5884 138.354 34.2783C137.497 33.8209 137.447 33.5266 137.381 28.3301L137.332 23.5582H141.47V19.9628H137.348V15.0606H133.226V17.5111ZM73.4685 19.5861C72.4467 19.668 70.9134 19.9458 70.0068 20.2395C69.2978 20.4518 67.3363 21.2363 67.1382 21.3832C67.0554 21.4323 68.4569 24.5369 68.5557 24.5369C68.5888 24.5369 68.885 24.4064 69.2316 24.2262C71.8689 22.9024 75.1 22.8702 76.5837 24.1771C77.0621 24.6018 77.6718 26.0076 77.6718 26.7265C77.6718 27.2986 77.6386 27.3472 77.3093 27.2495C74.9516 26.5961 72.232 26.4159 70.5834 26.8084C68.5557 27.2986 66.8248 28.6061 66.017 30.24C65.6214 31.0245 65.5552 31.3515 65.5552 32.5443C65.5552 33.7044 65.6208 34.0805 65.9839 34.8323C66.8414 36.5972 68.4735 37.7415 70.6821 38.117C72.8583 38.4932 75.0013 38.0187 76.7487 36.7768L77.6718 36.1234V37.7742H81.9578V31.7932C81.9578 25.436 81.8922 24.6843 81.101 23.1645C80.6391 22.2659 79.2051 20.8929 78.2324 20.4027C76.9965 19.7984 75.035 19.4556 73.4685 19.5861ZM75.4466 29.7674C76.0893 29.8657 76.8474 30.0125 77.1443 30.1102C77.6718 30.2734 77.6718 30.2898 77.6718 31.3357C77.6718 32.5449 77.4405 33.1007 76.6168 33.8033C74.7707 35.4214 71.2758 35.3559 70.1381 33.6892C69.4787 32.7415 69.6762 31.3521 70.5834 30.6168C71.7377 29.6855 73.106 29.4404 75.4466 29.7674ZM100.01 19.6358C97.982 19.8645 96.1524 20.7309 94.7343 22.1525C93.4813 23.3944 92.7563 24.6364 92.3441 26.2703C90.9426 31.7119 94.0093 36.8435 99.3834 38.0363C102.235 38.6576 106.109 37.7748 108.187 36.0099L108.863 35.4378L107.577 34.163L106.307 32.8883L105.879 33.1826C105.203 33.6564 103.868 34.2777 103.027 34.5064C102.021 34.7679 100.01 34.6539 99.2516 34.2777C97.8998 33.6407 96.7295 32.1858 96.3664 30.6987L96.2677 30.2576H110.148L110.083 29.6369C110.033 29.3099 109.951 28.5254 109.901 27.9211C109.637 24.816 107.741 21.6459 105.433 20.4852C103.983 19.7499 101.889 19.4229 100.01 19.6358ZM102.746 23.3125C104.148 23.8027 105.12 24.8979 105.632 26.5809L105.846 27.3162H101.082C98.4444 27.3162 96.3014 27.2835 96.3014 27.2507C96.3014 26.9565 96.8786 25.6981 97.2742 25.1424C98.4438 23.443 100.834 22.6427 102.746 23.3125ZM120.995 19.6516C119.792 19.8312 118.473 20.4361 117.5 21.2861L116.742 21.9559V19.9622H112.292V37.7754H116.726L116.775 31.9412C116.825 26.2381 116.842 26.0743 117.188 25.4045C117.88 24.1461 119.331 23.3453 120.946 23.3453C122.43 23.3289 123.518 23.9829 124.21 25.2734C124.556 25.9111 124.573 26.1398 124.622 31.843L124.672 37.7754H128.942V31.5159C128.942 26.8424 128.877 25.0611 128.712 24.4562C127.803 21.0246 124.704 19.1122 120.995 19.6516Z" fill="black"/>
<path d="M23.1359 34.2474C27.236 34.2474 30.5598 30.9595 30.5598 26.9037C30.5598 22.8479 27.236 19.56 23.1359 19.56C19.0358 19.56 15.712 22.8479 15.712 26.9037C15.712 30.9595 19.0358 34.2474 23.1359 34.2474Z" fill="black"/>
</svg>
