<svg width="84" height="69" viewBox="0 0 84 69" fill="none" xmlns="http://www.w3.org/2000/svg">
<g clip-path="url(#clip0_29_834)">
<path d="M14.2912 55.848C11.9722 51.4322 10.7562 46.527 10.7455 41.5461C10.7455 24.5499 24.6164 10.7657 41.7211 10.7657C50.3777 10.7657 58.304 14.1858 64.2485 20.4041L61.6411 22.7879C56.4262 17.2953 49.3341 14.2898 41.7211 14.2898C26.5981 14.2898 14.2912 26.5184 14.2912 41.5461C14.2912 46.0024 15.3348 50.3555 17.4204 54.19L14.2912 55.848Z" fill="url(#paint0_linear_29_834)"/>
<path d="M11.7035 61.756C7.62376 55.7243 5.42728 48.7557 5.42728 41.4759C5.53194 21.6118 21.7462 5.49204 41.8302 5.49204C47.6516 5.49347 53.3877 6.88253 58.5571 9.54263C63.7265 12.2027 68.1783 16.0562 71.5389 20.7797L68.6097 22.8599C65.5901 18.5887 61.5805 15.1022 56.9196 12.6948C52.2586 10.2875 47.0831 9.0299 41.8302 9.02833C23.7334 9.02833 9.08834 23.588 9.08834 41.5799C9.08834 48.1316 11.0763 54.4762 14.7373 59.8838L11.7035 61.756Z" fill="url(#paint1_linear_29_834)"/>
<path d="M9.72812 68.182C3.45421 60.6988 0.00401306 51.2401 0.00401306 41.5742C0.00401306 18.7084 18.7196 -6.86646e-05 41.8273 -6.86646e-05C57.1966 -6.86646e-05 71.2074 8.31448 78.5265 21.7224L75.3895 23.3858C72.1164 17.3771 67.269 12.3598 61.3607 8.86512C55.4524 5.37041 48.7031 3.52833 41.8273 3.53393C20.7067 3.53393 3.55887 20.5791 3.55887 41.5742C3.55887 50.5128 6.69583 59.1394 12.4464 65.8954L9.72812 68.182Z" fill="url(#paint2_linear_29_834)"/>
<path d="M30.5507 34.0228V36.7181H28.7779V46.2529H25.8572V36.7181H24.3969V34.0228H25.8572V31.8462C26.2749 32.6762 27.9425 32.8832 28.7779 34.0228H30.5507ZM40.2502 46.2529V40.0344C40.2502 38.2727 39.9377 36.304 37.7472 36.304C35.5567 36.304 35.2432 38.3762 35.2432 40.0344V46.2529H32.3235V29.981H35.2442V34.8519C36.1827 34.0228 37.2253 33.6078 38.3732 33.6078C40.146 33.6078 41.9188 34.6449 42.65 36.1995C43.0667 37.1331 43.1708 38.2717 43.1708 39.3088V46.2529H40.2502ZM48.0726 39.4123V46.2519H45.0478V34.0228H47.7591V35.1634C48.4903 34.1264 49.1153 33.6088 50.4715 33.6088H50.6798V36.4065C48.8028 36.5111 48.0726 37.5471 48.0726 39.4123ZM52.2433 32.6762V29.981H55.1639V32.6762H52.2433ZM52.2433 46.2519V34.0238H55.1639V46.2539H52.2443L52.2433 46.2519ZM63.9249 46.3564H61.6313L56.6243 34.1264H59.8574L62.8823 42.2101L65.6987 34.1264H68.9319L63.9249 46.3564ZM76.2315 33.5053C75.5014 33.5053 74.7722 33.6088 74.1462 33.8158C71.539 34.7484 69.7652 37.2356 69.7652 40.1379C69.7652 43.3507 72.0589 45.9414 75.0837 46.5634C76.7524 45.8369 78.1085 44.5938 78.8397 42.7286C78.8397 42.6251 78.7345 42.6251 78.7345 42.7286C78.1085 43.5577 77.2742 43.9727 76.2315 43.9727C74.667 43.9727 73.3109 42.8321 72.9984 41.381H82.5937C82.6978 40.8634 82.802 40.4484 82.802 39.9309C82.5937 36.5101 79.7772 33.5053 76.2315 33.5053ZM72.79 39.1018C73.2067 37.4436 74.5629 36.1995 76.3357 36.1995C77.0669 36.1995 77.6919 36.4075 78.2137 36.7171C78.9428 37.2356 79.5688 38.0647 79.7772 38.9973H72.79V39.1018Z" fill="black"/>
<path d="M82.1776 42.4176C81.4472 44.9046 78.8397 46.6666 76.233 46.6666C75.9198 46.6666 75.6073 46.6666 75.2941 46.5626C75.5027 46.4594 75.7112 46.4594 75.9198 46.3554C77.2759 45.7336 78.214 44.8014 78.8397 43.4538C79.153 42.7281 79.8833 42.4176 80.6129 42.4176H82.1776Z" fill="url(#paint3_linear_29_834)"/>
<path d="M28.7782 30.0853V33.1941C27.9439 32.0538 26.1707 31.8466 25.8583 31.0176C25.7536 30.9143 25.7536 30.8103 25.7536 30.6031V27.5975C26.7964 27.287 28.7782 28.5305 28.7782 30.0853Z" fill="url(#paint4_linear_29_834)"/>
<path d="M58.8148 53.403V52.6785C58.6064 52.8855 58.5013 53.0925 58.2939 53.196C57.8739 53.4084 57.408 53.5153 56.9368 53.5075C55.4774 53.5075 54.4348 52.367 54.4348 50.9158C54.4348 49.4657 55.4764 48.3251 57.0419 48.3251C57.6679 48.3251 58.5013 48.6366 58.8148 49.1542V48.4296H59.6491V53.3005H58.8148V53.403ZM57.0419 49.2587C56.1024 49.2587 55.3733 50.0877 55.3733 51.0203C55.3733 51.9529 56.1024 52.782 57.0419 52.782C57.9804 52.782 58.7106 51.9529 58.7106 51.0203C58.8148 50.0877 58.0846 49.2587 57.0419 49.2587ZM63.1948 55.3727C62.4646 55.3727 61.9428 55.1647 61.4219 54.6462C61.1084 54.3366 61.0053 54.2321 60.7959 53.8181H61.8396C62.1521 54.3356 62.6739 54.5436 63.2989 54.5436C64.3416 54.5436 65.0717 53.9216 65.0717 52.8855V52.781C64.8594 53.0443 64.5893 53.2559 64.282 53.3996C63.9747 53.5433 63.6385 53.6153 63.2989 53.6101C62.9556 53.6134 62.6151 53.5486 62.2973 53.4196C61.9794 53.2906 61.6907 53.0999 61.4479 52.8587C61.2052 52.6174 61.0132 52.3305 60.8834 52.0147C60.7536 51.6989 60.6884 51.3605 60.6918 51.0193C60.6918 49.5682 61.9438 48.4296 63.4031 48.4296C64.1342 48.4296 64.6551 48.6366 65.1759 49.1542V48.5321H65.9071V52.8855C65.9071 54.4391 64.6551 55.3727 63.1948 55.3727ZM63.1948 49.2577C62.2563 49.2577 61.4219 50.0868 61.4219 51.0193C61.4219 51.9519 62.1521 52.781 63.0906 52.781C64.1332 52.781 64.8634 51.9519 64.8634 50.9158C64.9676 49.9832 64.1332 49.2577 63.1948 49.2577ZM67.9924 50.8133V53.5075H67.0539V48.6366H67.9924V49.0507C68.3049 48.6366 68.7226 48.5331 69.2444 48.5331V49.4657C68.3049 49.4657 67.9924 49.8797 67.9924 50.8133ZM69.9746 48.0146V46.9775H70.9131V48.0126H69.9746V48.0146ZM69.9746 53.404V48.5331H70.9131V53.404H69.9746ZM74.2494 53.6101C72.79 53.6101 71.7474 52.4705 71.7474 51.0193C71.7474 49.5682 72.789 48.4286 74.2494 48.4286C75.293 48.4286 76.4399 49.1542 76.6492 50.1903H75.6055C75.293 49.5682 74.8754 49.2577 74.2494 49.2577C73.3119 49.2577 72.5817 50.0868 72.5817 51.0193C72.5817 51.9529 73.2067 52.781 74.1462 52.781C74.7712 52.781 75.293 52.367 75.6055 51.8484H76.6492C76.4969 52.3617 76.1801 52.8116 75.7469 53.1296C75.3137 53.4476 74.7879 53.6163 74.2494 53.6101Z" fill="#48A64C"/>
</g>
<defs>
<linearGradient id="paint0_linear_29_834" x1="-28.2607" y1="40.6537" x2="67.321" y2="27.7119" gradientUnits="userSpaceOnUse">
<stop stop-color="#9ACB55"/>
<stop offset="1" stop-color="#0D9A49"/>
</linearGradient>
<linearGradient id="paint1_linear_29_834" x1="-28.3442" y1="40.8364" x2="67.5237" y2="27.849" gradientUnits="userSpaceOnUse">
<stop stop-color="#9ACB55"/>
<stop offset="1" stop-color="#0D9A49"/>
</linearGradient>
<linearGradient id="paint2_linear_29_834" x1="-28.2685" y1="41.1297" x2="67.554" y2="28.1501" gradientUnits="userSpaceOnUse">
<stop stop-color="#9ACB55"/>
<stop offset="1" stop-color="#0D9A49"/>
</linearGradient>
<linearGradient id="paint3_linear_29_834" x1="75.2664" y1="44.5605" x2="82.1355" y2="44.5605" gradientUnits="userSpaceOnUse">
<stop stop-color="#9ACB55"/>
<stop offset="1" stop-color="#0D9A49"/>
</linearGradient>
<linearGradient id="paint4_linear_29_834" x1="25.7074" y1="30.3759" x2="28.7694" y2="30.3759" gradientUnits="userSpaceOnUse">
<stop stop-color="#9ACB55"/>
<stop offset="1" stop-color="#0D9A49"/>
</linearGradient>
<clipPath id="clip0_29_834">
<rect width="83.1325" height="68.6747" fill="white"/>
</clipPath>
</defs>
</svg>
